<svg width="23" height="15" viewBox="0 0 23 15" fill="none" xmlns="http://www.w3.org/2000/svg">
<path d="M1.49012e-08 14.14V13.54C0.186667 13.54 0.453333 13.52 0.8 13.48C1.14667 13.44 1.46667 13.3533 1.76 13.22V0.919999C1.46667 0.786666 1.14667 0.699999 0.8 0.659999C0.453333 0.619999 0.186667 0.599998 1.49012e-08 0.599998V-9.53674e-07H5.26V0.599998C5.07333 0.599998 4.80667 0.619999 4.46 0.659999C4.12667 0.699999 3.80667 0.786666 3.5 0.919999V6.16H11.5V0.919999C11.2067 0.786666 10.8867 0.699999 10.54 0.659999C10.1933 0.619999 9.92667 0.599998 9.74 0.599998V-9.53674e-07H15V0.599998C14.8133 0.599998 14.5467 0.619999 14.2 0.659999C13.8667 0.699999 13.5467 0.786666 13.24 0.919999V13.22C13.5467 13.3533 13.8667 13.44 14.2 13.48C14.5467 13.52 14.8133 13.54 15 13.54V14.14H9.74V13.54C9.92667 13.54 10.1933 13.52 10.54 13.48C10.8867 13.44 11.2067 13.3533 11.5 13.22V7.18H3.5V13.22C3.80667 13.3533 4.12667 13.44 4.46 13.48C4.80667 13.52 5.07333 13.54 5.26 13.54V14.14H1.49012e-08ZM16.7969 14.14V13.54C16.9835 13.54 17.2502 13.52 17.5969 13.48C17.9435 13.44 18.2635 13.3533 18.5569 13.22V0.919999C18.2635 0.786666 17.9435 0.699999 17.5969 0.659999C17.2502 0.619999 16.9835 0.599998 16.7969 0.599998V-9.53674e-07H22.0569V0.599998C21.8702 0.599998 21.6035 0.619999 21.2569 0.659999C20.9235 0.699999 20.6035 0.786666 20.2969 0.919999V13.22C20.6035 13.3533 20.9235 13.44 21.2569 13.48C21.6035 13.52 21.8702 13.54 22.0569 13.54V14.14H16.7969Z" fill="#B51616"/>
</svg>
